# xmcd
#
# Track frame offsets:
#	150
#	21633
#	44862
#	66036
#	103921
#	130212
#	159042
#	190407
#
# Disc length: 3946 seconds
#
# Revision: 0
# Processed by: cddbd v1.5.2PL0 Copyright (c) Steve Scherf et al.
# Submitted via: EasyCDDAExtractor 12.0.7.1
#
DISCID=730f6808
DTITLE=Lance Lopez - Live
DYEAR=1900
DGENRE=
TTITLE0=Spanish Castle Magic
TTITLE1=There Is Love
TTITLE2=Killing Floor
TTITLE3=Mr. Rattlesnake
TTITLE4=The Brick
TTITLE5=I'm Doin' Fine
TTITLE6=Walk It
TTITLE7=Every Time I Turn Around
EXTD=
EXTT0=
EXTT1=
EXTT2=
EXTT3=
EXTT4=
EXTT5=
EXTT6=
EXTT7=
PLAYORDER=
